<svg width="3500" height="3500" viewBox="0 0 3500 3500" fill="none" xmlns="http://www.w3.org/2000/svg">
<rect width="3500" height="3500" fill="url(#paint0_linear_304_9)"/>
<path d="M1750 2095L3500 3500H0L1750 2095Z" fill="#CFC190"/>
<path d="M1750 2095L3500 3500H2337.98L1750 2095Z" fill="#81795E"/>
<path d="M1314.02 1709H1287.6C1286.04 1701.4 1283.3 1694.72 1279.4 1688.97C1275.56 1683.22 1270.87 1678.39 1265.33 1674.48C1259.87 1670.51 1253.79 1667.52 1247.12 1665.53C1240.44 1663.55 1233.48 1662.55 1226.24 1662.55C1213.03 1662.55 1201.06 1665.89 1190.33 1672.57C1179.68 1679.24 1171.19 1689.08 1164.87 1702.08C1158.62 1715.07 1155.5 1731.02 1155.5 1749.91C1155.5 1768.8 1158.62 1784.75 1164.87 1797.74C1171.19 1810.74 1179.68 1820.58 1190.33 1827.25C1201.06 1833.93 1213.03 1837.27 1226.24 1837.27C1233.48 1837.27 1240.44 1836.27 1247.12 1834.28C1253.79 1832.3 1259.87 1829.35 1265.33 1825.44C1270.87 1821.46 1275.56 1816.6 1279.4 1810.85C1283.3 1805.02 1286.04 1798.35 1287.6 1790.82H1314.02C1312.03 1801.97 1308.41 1811.95 1303.15 1820.75C1297.9 1829.56 1291.36 1837.05 1283.55 1843.23C1275.74 1849.34 1266.97 1853.99 1257.24 1857.19C1247.58 1860.38 1237.24 1861.98 1226.24 1861.98C1207.63 1861.98 1191.08 1857.44 1176.59 1848.35C1162.1 1839.26 1150.7 1826.33 1142.39 1809.57C1134.08 1792.81 1129.93 1772.92 1129.93 1749.91C1129.93 1726.9 1134.08 1707.01 1142.39 1690.25C1150.7 1673.49 1162.1 1660.56 1176.59 1651.47C1191.08 1642.38 1207.63 1637.84 1226.24 1637.84C1237.24 1637.84 1247.58 1639.43 1257.24 1642.63C1266.97 1645.83 1275.74 1650.51 1283.55 1656.69C1291.36 1662.8 1297.9 1670.26 1303.15 1679.06C1308.41 1687.8 1312.03 1697.78 1314.02 1709ZM1425.66 1859H1397.96L1478.08 1640.82H1505.35L1585.46 1859H1557.76L1492.57 1675.34H1490.86L1425.66 1859ZM1435.89 1773.77H1547.54V1797.21H1435.89V1773.77ZM1679.45 1640.82H1710.98L1785.13 1821.93H1787.69L1861.83 1640.82H1893.37V1859H1868.65V1693.23H1866.52L1798.34 1859H1774.48L1706.29 1693.23H1704.16V1859H1679.45V1640.82ZM2006.34 1859V1640.82H2138.02V1664.26H2032.76V1737.98H2131.2V1761.41H2032.76V1835.56H2139.72V1859H2006.34ZM2245.64 1859V1640.82H2272.06V1835.56H2373.48V1859H2245.64Z" fill="white"/>
<defs>
<linearGradient id="paint0_linear_304_9" x1="1750" y1="0" x2="1750" y2="3500" gradientUnits="userSpaceOnUse">
<stop stop-color="#FFC979"/>
<stop offset="1" stop-color="#FF603E"/>
</linearGradient>
</defs>
</svg>
